<svg aria-hidden="true" style="position: absolute; width: 0; height: 0; overflow: hidden;" version="1.1" xmlns="http://www.w3.org/2000/svg" xmlns:xlink="http://www.w3.org/1999/xlink">
<defs>
<symbol id="icon-eye-off" viewBox="0 0 32 32">
<path stroke-linejoin="round" stroke-linecap="round" stroke-miterlimit="4" stroke-width="3.2" d="M23.92 23.92c-2.288 1.728-5.056 2.688-7.92 2.736-9.344 0-14.672-10.656-14.672-10.656 1.648-3.104 3.952-5.792 6.736-7.936M13.2 5.648c0.912-0.224 1.856-0.32 2.8-0.32 9.328 0 14.656 10.672 14.656 10.672-0.8 1.504-1.776 2.928-2.88 4.24M18.816 18.816c-0.368 0.4-0.8 0.704-1.296 0.928s-1.024 0.336-1.552 0.352c-0.544 0-1.072-0.096-1.568-0.288-0.512-0.208-0.96-0.512-1.344-0.88-0.368-0.384-0.672-0.848-0.88-1.344-0.192-0.496-0.288-1.024-0.288-1.568 0.016-0.528 0.128-1.056 0.352-1.552s0.528-0.928 0.928-1.296"></path>
<path stroke-linejoin="round" stroke-linecap="round" stroke-miterlimit="4" stroke-width="3.2" d="M1.328 1.328l29.328 29.328"></path>
</symbol>
<symbol id="icon-eye" viewBox="0 0 32 32">
<path stroke-linejoin="round" stroke-linecap="butt" stroke-miterlimit="4" stroke-width="3.2" d="M16 5.328c9.328 0 14.656 10.672 14.656 10.672s-5.328 10.656-14.656 10.656c-9.344 0-14.672-10.656-14.672-10.656s5.328-10.672 14.672-10.672z"></path>
<path stroke-linejoin="round" stroke-linecap="butt" stroke-miterlimit="4" stroke-width="3.2" d="M16 20c-2.224 0-4-1.792-4-4 0-2.224 1.776-4 4-4 2.208 0 4 1.776 4 4 0 2.208-1.792 4-4 4z"></path>
</symbol>
<symbol id="icon-mdi_user" viewBox="0 0 32 32">
<path d="M16 5.333c1.413 0 2.76 0.56 3.76 1.56s1.573 2.347 1.573 3.773c0 1.413-0.573 2.76-1.573 3.76s-2.347 1.573-3.76 1.573c-1.427 0-2.773-0.573-3.773-1.573s-1.56-2.347-1.56-3.76c0-1.427 0.56-2.773 1.56-3.773s2.347-1.56 3.773-1.56zM16 18.667c5.88 0 10.667 2.387 10.667 5.333v2.667h-21.333v-2.667c0-2.947 4.773-5.333 10.667-5.333z"></path>
</symbol>
<symbol id="icon-clock" viewBox="0 0 32 32">
<path stroke-linejoin="round" stroke-linecap="butt" stroke-miterlimit="4" stroke-width="2.4" d="M16 29.328c-7.376 0-13.344-5.968-13.344-13.344 0-7.36 5.968-13.328 13.344-13.328 7.36 0 13.328 5.968 13.328 13.328 0 7.376-5.968 13.344-13.328 13.344z"></path>
<path stroke-linejoin="round" stroke-linecap="round" stroke-miterlimit="4" stroke-width="2.4" d="M16 8v8l5.328 2.656"></path>
</symbol>
<symbol id="icon-heart" viewBox="0 0 32 32">
<path stroke-linejoin="round" stroke-linecap="butt" stroke-miterlimit="4" stroke-width="2.4615" d="M25.403 4.554c-0.898-0.369-1.846-0.566-2.806-0.566s-1.92 0.197-2.806 0.566c-0.898 0.369-1.698 0.911-2.388 1.588l-1.403 1.415-1.415-1.415c-1.378-1.378-3.249-2.154-5.194-2.154s-3.803 0.775-5.182 2.154c-1.378 1.378-2.154 3.237-2.154 5.182s0.775 3.815 2.154 5.194l1.415 1.415 10.375 10.363 11.778-11.778c0.689-0.689 1.231-1.489 1.588-2.388 0.369-0.886 0.566-1.834 0.566-2.806 0-0.96-0.197-1.908-0.566-2.806-0.357-0.886-0.898-1.698-1.588-2.375-0.677-0.677-1.489-1.218-2.375-1.588z"></path>
</symbol>
<symbol id="icon-map-pin" viewBox="0 0 32 32">
<path stroke-linejoin="round" stroke-linecap="butt" stroke-miterlimit="4" stroke-width="3" d="M16 30.66c0 0-12-8-12-17.34 0-3.18 1.26-6.24 3.5-8.48 2.26-2.26 5.3-3.52 8.5-3.52 3.18 0 6.22 1.26 8.48 3.52 2.24 2.24 3.52 5.3 3.52 8.48 0 9.34-12 17.34-12 17.34z"></path>
<path stroke-linejoin="round" stroke-linecap="butt" stroke-miterlimit="4" stroke-width="3" d="M16 17.32c-2.22 0-4-1.78-4-4 0-2.2 1.78-4 4-4 2.2 0 4 1.8 4 4 0 2.22-1.8 4-4 4z"></path>
</symbol>
<symbol id="icon-icon_star" viewBox="0 0 32 32">
<path d="M15.1 1.66l-3.78 7.16c-0.14 0.28-0.4 0.48-0.7 0.52l-7.98 1.38c-0.8 0.14-1.1 1.1-0.54 1.68l5.64 5.8c0.22 0.24 0.32 0.54 0.26 0.84l-1.14 8.020c-0.12 0.8 0.7 1.4 1.42 1.040l7.26-3.58c0.28-0.12 0.62-0.12 0.9 0l7.26 3.58c0.72 0.36 1.54-0.24 1.42-1.040l-1.14-8.020c-0.060-0.3 0.040-0.6 0.26-0.84l5.64-5.8c0.56-0.58 0.26-1.54-0.54-1.68l-7.98-1.38c-0.3-0.040-0.56-0.24-0.7-0.52l-3.78-7.16c-0.38-0.7-1.4-0.7-1.78 0z"></path>
<path d="M11.32 8.82l3.78-7.16c0.38-0.7 1.4-0.7 1.78 0l3.78 7.16c0.14 0.28 0.4 0.48 0.7 0.52l7.98 1.38c0.8 0.14 1.1 1.1 0.54 1.68l-5.64 5.8c-0.22 0.24-0.32 0.54-0.26 0.84l1.14 8.020c0.12 0.8-0.7 1.4-1.42 1.040l-7.26-3.58c-0.28-0.12-0.62-0.12-0.9 0l-7.26 3.58c-0.72 0.36-1.54-0.24-1.42-1.040l1.14-8.020c0.060-0.3-0.040-0.6-0.26-0.84l-5.64-5.8c-0.56-0.58-0.26-1.54 0.54-1.68l7.98-1.38c0.3-0.040 0.56-0.24 0.7-0.52zM13.46 9.94c-0.5 0.94-1.4 1.58-2.44 1.76l-5.36 0.94 3.8 3.9c0.72 0.76 1.080 1.8 0.92 2.84l-0.78 5.4 4.9-2.4c0.94-0.48 2.040-0.48 3 0l4.88 2.4-0.78-5.4c-0.16-1.040 0.2-2.080 0.92-2.84l3.8-3.9-5.36-0.94c-1.040-0.18-1.94-0.82-2.44-1.76l-2.52-4.8-2.54 4.8z"></path>
</symbol>
<symbol id="icon-feCheck0" viewBox="0 0 32 32">
<path d="M4 12l-4 4 12 12 20-20-4-4-16 16-8-8z"></path>
</symbol>
<symbol id="icon-x" viewBox="0 0 32 32">
<path stroke-linejoin="round" stroke-linecap="round" stroke-miterlimit="4" stroke-width="2.5" d="M24 8l-16 16"></path>
<path stroke-linejoin="round" stroke-linecap="round" stroke-miterlimit="4" stroke-width="2.5" d="M8 8l16 16"></path>
</symbol>
<symbol id="icon-Arrow-16" viewBox="0 0 32 32">
<path d="M20.76 4.64l-11.080 1.56c-1.1 0.16-2.1-0.6-2.26-1.7-0.14-1.12 0.6-2.1 1.72-2.26l15.84-2.22c1.1-0.16 2.1 0.58 2.26 1.7l2.22 15.84c0.16 1.1-0.6 2.1-1.7 2.26s-2.1-0.6-2.26-1.7l-1.56-11.060-18.76 24.88-3.18-2.4 18.76-24.9z"></path>
</symbol>
</defs>
</svg>
